<svg xmlns="http://www.w3.org/2000/svg" width="25.001" height="30" viewBox="0 0 25.001 30">
  <path id="shopping_bag" data-name="shopping bag" d="M23.41,8.18a.23.23,0,0,0-.227-.217H19.092V6.793a6.594,6.594,0,1,0-13.182,0V7.964H1.82a.23.23,0,0,0-.227.217L0,29.748a.238.238,0,0,0,.06.177A.223.223,0,0,0,.228,30H24.774a.224.224,0,0,0,.167-.075.239.239,0,0,0,.06-.177ZM7.729,6.793a4.775,4.775,0,1,1,9.545,0V7.964H7.729ZM6.82,14.529a2.312,2.312,0,0,1-2.273-2.345,2.217,2.217,0,0,1,1.364-2.149v2.149a.91.91,0,1,0,1.818,0v-2.15a2.222,2.222,0,0,1,1.364,2.148A2.312,2.312,0,0,1,6.82,14.526Zm11.364,0a2.312,2.312,0,0,1-2.273-2.345,2.217,2.217,0,0,1,1.364-2.149v2.149a.91.91,0,1,0,1.818,0v-2.15a2.222,2.222,0,0,1,1.364,2.148,2.312,2.312,0,0,1-2.274,2.344Z" transform="translate(0 0)" fill="#fff"/>
</svg>
